M48
;Layer_Color=9474304
;FILE_FORMAT=4:2
METRIC,LZ
;TYPE=PLATED
T1F00S00C1.00
T3F00S00C1.50
T4F00S00C3.20
%
T01
X00206Y001623
X002515Y001626
Y00188
Y002134
Y002388
Y002642
Y002896
Y00315
Y003404
Y003658
Y003912
X003277
Y003658
Y003404
Y00315
Y002896
Y002642
Y002388
Y002134
Y00188
Y001626
X003061Y000749
X003772Y002476
X003914Y002726
X003772Y002984
X004612Y002233
X005108Y002345
X00587Y002373
X005702Y001753
Y001499
X00574Y000241
X005994
X005486
X006426Y002959
X007164Y002959
X005182Y003708
X004899Y004635
X006604Y004153
X003277Y004166
Y00442
Y004674
Y004928
X002515
Y004674
Y00442
Y004166
X002402Y005205
X002916Y006101
X001372Y004458
T03
X002289Y000458
Y000966
X003539
Y000458
X000914Y002838
X000406
X004906
X005414
Y004088
X004906
X006011Y004127
Y004635
X007261
Y004127
X003539Y005601
Y006109
X002289
Y005601
X000914Y004088
X000406
T04
X0004Y0004
X0071
Y0062
X0004
M30
