%FSTAX24Y24*%
%MOMM*%
%SFA1B1*%

%IPPOS*%
%ADD10R,1.449997X0.899998*%
%ADD11R,0.899998X1.449997*%
%ADD12C,0.759998*%
%ADD13C,0.499999*%
%ADD14O,2.199996X3.999992*%
%ADD15C,1.999996*%
%ADD16R,1.999996X1.999996*%
%ADD17O,2.499995X3.999992*%
%ADD18O,3.999992X2.499995*%
%ADD19O,2.499995X1.999996*%
%ADD20R,2.499995X1.999996*%
%ADD21O,3.999992X2.199996*%
%ADD22C,2.499995*%
%ADD23R,2.499995X2.499995*%
%ADD24O,1.999996X2.499995*%
%ADD25C,3.499993*%
%LNpcb-1*%
%LPD*%
G36*
X750599Y483999D02*
X694699D01*
Y443399*
X750599*
Y0*
X0*
Y6604*
X750599*
Y483999*
G37*
%LNpcb-2*%
%LPC*%
G36*
X607699Y630599D02*
D01*
X607499*
X590699*
Y627199*
X501199*
X499199Y626899*
X497299Y626199*
X495699Y624899*
X350399Y479699*
X349199Y480199*
Y510499*
X306099*
Y337499*
X274199Y305699*
X273099Y306199*
Y3302*
X231099*
Y205799*
X229999Y205399*
X227899Y207399*
X162099Y273199*
Y322299*
X163199Y322799*
X164199*
X181199*
Y326299*
X191099*
Y323099*
X208099*
Y345599*
X191099*
Y342099*
X181199*
Y345299*
X164199*
X163199*
X146199*
Y322799*
X146399*
Y269899*
X146699Y267899*
X147399Y265999*
X148699Y264399*
X216699Y196299*
X228899Y184199*
X228399Y182899*
X185399*
Y144799*
X273099*
Y282699*
X273199*
X274799Y283999*
X315899Y325099*
X349199*
Y339399*
X358899Y348999*
X447599*
X453399Y343199*
Y320399*
X452099Y320199*
X451299Y322099*
X450099Y323699*
X437999Y335799*
Y345299*
X420999*
X419999*
X402999*
Y341899*
X389499*
Y345299*
X372499*
Y322799*
X389499*
Y326099*
X402999*
Y322799*
X419999*
X420999*
X428799*
X436599Y314899*
Y239499*
X430299Y233099*
X429099Y233599*
Y246999*
X406599*
Y246399*
X394299*
X3937Y246999*
Y249299*
X393099Y252499*
X391799Y255499*
X389999Y258199*
X387699Y260499*
X384999Y262299*
X381999Y263499*
X378799Y264199*
X375599*
X372399Y263499*
X371899Y263299*
X365399Y269699*
X363799Y270999*
X361899Y271799*
X359899Y271999*
X349199*
Y281699*
X363599*
X365599Y281999*
X367499Y282699*
X369199Y283999*
X369399Y283799*
X372399Y282599*
X375599Y281899*
X378799*
X381999Y282599*
X384999Y283799*
X387699Y285599*
X389999Y287899*
X391799Y290599*
X406599*
Y286399*
X429099*
Y303399*
X417699*
X417099Y303999*
X415399Y305299*
X414299Y305699*
X413499Y306099*
X411499Y306299*
X391799*
X389999Y308999*
X387699Y311299*
X384999Y313099*
X381999Y314299*
X378799Y314999*
X375599*
X372399Y314299*
X369399Y313099*
X366699Y311299*
X364399Y308999*
X362599Y306299*
X361299Y303299*
X360699Y300099*
Y297799*
X360299Y297399*
X349199*
Y3048*
X306099*
Y205799*
X304899Y205399*
X302799Y207499*
X302099Y208399*
Y208499*
Y225199*
Y225499*
Y226499*
Y226699*
Y243399*
X298699*
Y259499*
X302099*
Y276499*
X279599*
Y259499*
X282999*
Y243399*
X279599*
Y226699*
Y226499*
Y225499*
Y225199*
Y208399*
X284999*
Y206299*
X285199Y204199*
X285499Y203499*
X285999Y202299*
X287299Y200699*
X303199Y184799*
X3048Y183499*
X306099Y182999*
Y154599*
X300499Y148999*
X299199Y147399*
X298499Y145499*
X298199Y143499*
Y086499*
X297499Y086099*
X294899Y083499*
X292999Y080299*
X2921Y076799*
Y073099*
X292999Y069499*
X294899Y066299*
X297499Y063699*
X300699Y061899*
X304199Y060899*
X307899*
X311499Y061899*
X314699Y063699*
X317299Y066299*
X319099Y069499*
X320099Y073099*
Y076799*
X319099Y080299*
X317299Y083499*
X314699Y086099*
X313899Y086499*
Y140199*
X318499Y144799*
X349199*
Y195499*
X350399Y195999*
X357599Y188699*
X359299Y187499*
X361199Y186699*
X363199Y186399*
X542299*
X544299Y186699*
X545099Y186999*
X546199Y187499*
X547799Y188699*
X582999Y223799*
X585099Y223299*
X588799*
X592399Y224199*
X595599Y226099*
X598199Y228699*
X599999Y231899*
X600999Y235399*
Y239099*
X599999Y242699*
X598199Y245899*
X595599Y248499*
X592399Y250299*
X588799Y251299*
X585099*
X581599Y250299*
X578399Y248499*
X575799Y245899*
X573899Y242699*
X572999Y239099*
Y236099*
X538999Y202199*
X366499*
X350299Y218399*
X349199Y219199*
Y222199*
X350399Y222599*
X357599Y215399*
X359299Y214199*
X361199Y213399*
X363199Y213099*
X429299*
X431299Y213399*
X433199Y214199*
X434799Y215399*
X446399Y226999*
X447499Y226299*
X447199Y225099*
Y221499*
X448199Y217899*
X449999Y214699*
X452599Y212099*
X455799Y210299*
X459399Y209299*
X463099*
X466599Y210299*
X469799Y212099*
X472399Y214699*
X474299Y217899*
X475199Y221499*
Y225099*
X474299Y228699*
X472399Y231899*
X469799Y234499*
X469099Y234899*
Y237699*
X469499*
Y260199*
X469099*
Y346499*
X468799Y348499*
X468099Y350399*
X466799Y352099*
X4572Y361699*
X457699Y362999*
X506499*
X506999Y362199*
X509599Y359599*
X512799Y357799*
X516299Y356799*
X519999*
X523599Y357799*
X526799Y359599*
X529399Y362199*
X531199Y365399*
X532199Y368999*
Y372699*
X531199Y376199*
X529399Y379399*
X526799Y381999*
X526299Y382299*
X526599Y383499*
X561299*
Y439399*
X5207*
Y385399*
X519999Y384799*
X516299*
X512799Y383899*
X509599Y381999*
X506999Y379399*
X506499Y378699*
X349199*
Y384599*
X420399*
X422399Y384799*
X424299Y385599*
X425899Y386899*
X488599Y449499*
X491799*
X4953Y450499*
X498499Y452299*
X501099Y454899*
X502999Y458099*
X503899Y461699*
Y465399*
X502999Y468899*
X501099Y472099*
X498499Y474699*
X4953Y476599*
X491799Y477499*
X488099*
X484499Y476599*
X481299Y474699*
X478699Y472099*
X476899Y468899*
X475899Y465399*
Y461699*
X476499Y459699*
X417099Y400299*
X349199*
Y409999*
X397499*
X399499Y410199*
X401399Y410999*
X403099Y412299*
X502399Y511599*
X590699*
Y508199*
X607699*
X608699*
X625699*
Y511599*
X636699*
Y508199*
X653699*
Y530699*
X636699*
Y527299*
X625699*
Y530699*
X608699*
X607699*
X590699*
Y527299*
X499099*
X497099Y526999*
X495199Y526299*
X493499Y524999*
X394199Y425699*
X349199*
Y434099*
X373399*
X375399Y434399*
X377299Y435099*
X378999Y436399*
X505899Y563299*
X590699*
Y559899*
X607699*
X608699*
X625699*
Y563399*
X636499*
Y560099*
X653499*
Y582599*
X636499*
Y579199*
X625699*
Y582399*
X608699*
X607699*
X590699*
Y578999*
X502599*
X500599Y578799*
X498699Y577999*
X496999Y576699*
X370099Y449799*
X349199*
Y459499*
X351299Y459799*
X353199Y460499*
X354799Y461799*
X504499Y611499*
X590699*
Y608099*
X607699*
X608699*
X625699*
Y611299*
X636399*
Y607199*
X653399*
Y629699*
X636399*
Y627099*
X625699*
Y630599*
X608999*
X608699*
X607699*
G37*
G36*
X256499Y581499D02*
X200599D01*
Y540899*
X256499*
Y581499*
G37*
G36*
X381Y580299D02*
X325099D01*
Y539599*
X381*
Y580299*
G37*
G36*
X0889Y577999D02*
X053799D01*
Y566899*
X024599*
Y458499*
X053799*
Y449599*
X0889*
Y577999*
G37*
G36*
X629899Y483999D02*
X574099D01*
Y443399*
X629899*
Y483999*
G37*
G36*
X242099Y534499D02*
X238399D01*
X234799Y533499*
X231699Y531699*
X228999Y529099*
X227199Y525899*
X226199Y522299*
Y518599*
X227199Y515099*
X228999Y511899*
X229299Y511599*
X229899Y510499*
Y350499*
X273099*
Y464599*
X279199*
X279599Y464199*
Y463199*
Y462899*
Y446199*
X282999*
Y431599*
X279599*
Y414599*
X302099*
Y431599*
X298699*
Y446199*
X302099*
Y462899*
Y463199*
Y464199*
Y464399*
Y481199*
X279599*
Y480299*
X273099*
Y510499*
X256699*
X256099Y512099*
X254799Y513699*
X253299Y515199*
X254199Y518599*
Y522299*
X253299Y525899*
X251499Y529099*
X248799Y531699*
X245699Y533499*
X242099Y534499*
G37*
G36*
X111899Y438099D02*
X071199D01*
Y382299*
X111899*
Y438099*
G37*
G36*
X6604Y313699D02*
X626099D01*
Y2794*
X6604*
Y313699*
G37*
G36*
X561299Y311099D02*
X5207D01*
Y255299*
X561299*
Y311099*
G37*
G36*
X111899D02*
X071199D01*
Y255299*
X111899*
Y311099*
G37*
G36*
X587999Y1905D02*
X554999D01*
Y137199*
X564199*
X564799Y136799*
X568399Y135899*
X572099*
X575599Y136799*
X576199Y137199*
X586699*
Y189199*
X587999Y1905*
G37*
G36*
X062199Y234299D02*
X027199D01*
Y109199*
X062199*
Y125699*
X093999*
Y214099*
X062199*
Y234299*
G37*
G36*
X610599Y156199D02*
X607299Y155799D01*
X604399Y154899*
X593099*
Y107999*
X628699*
Y154899*
X616799*
X613799Y155799*
X610599Y156199*
G37*
G36*
X382299Y067399D02*
X326399D01*
Y026799*
X382299*
Y067399*
G37*
G36*
X257799Y066199D02*
X201899D01*
Y025499*
X257799*
Y066199*
G37*
G36*
X619799Y043199D02*
X528299D01*
Y005099*
X619799*
Y043199*
G37*
%LNpcb-3*%
%LPD*%
G54D10*
X290799Y454699D03*
Y472699D03*
Y234999D03*
Y216899D03*
X417799Y256499D03*
Y238499D03*
Y276899D03*
Y294899D03*
X290799Y423099D03*
Y405099D03*
Y267999D03*
Y285999D03*
G54D11*
X645199Y519399D03*
X663199D03*
X644999Y571299D03*
X662999D03*
X644899Y618499D03*
X662899D03*
X411499Y333999D03*
X429499D03*
X154699D03*
X172699D03*
X478999Y248899D03*
X460999D03*
X199599Y334399D03*
X217599D03*
X362999Y333999D03*
X381D03*
X617199Y571199D03*
X599199D03*
X617199Y619299D03*
X599199D03*
X617199Y519399D03*
X599199D03*
G54D12*
X646399Y648999D02*
X662899Y632499D01*
X291599Y610099D02*
X330399Y648999D01*
X646399*
X662899Y618499D02*
Y632499D01*
Y618499D02*
X662999D01*
X220799Y340399D02*
X270499D01*
X290799Y360699D02*
Y405099D01*
X270499Y340399D02*
X290799Y360699D01*
X662999Y571299D02*
X663099Y571199D01*
X662999Y571399D02*
Y571299D01*
X663099Y519499D02*
X663199Y519399D01*
X663099Y519499D02*
Y571199D01*
X662999Y571399D02*
Y618499D01*
X662499Y417399D02*
Y518699D01*
X6604Y415299D02*
X662499Y417399D01*
Y518699D02*
X663199Y519399D01*
X494999Y248899D02*
X509399Y234499D01*
X510799*
X478999Y248899D02*
X494999D01*
X325199Y162599D02*
X327699D01*
X306099Y074899D02*
Y143499D01*
X325199Y162599*
X137199Y445799D02*
X220799Y362099D01*
Y340399D02*
Y362099D01*
X338599Y370799D02*
X518199D01*
X333499Y365799D02*
X338599Y370799D01*
X327699Y365799D02*
X333499D01*
X401399Y270199D02*
X415099Y256499D01*
X417799*
Y276899*
X360999Y330599D02*
X362299D01*
X327699Y314999D02*
X345399D01*
X362999Y331299D02*
Y333999D01*
X345399Y314999D02*
X360999Y330599D01*
X362299D02*
X362999Y331299D01*
X325299Y312599D02*
X327699Y314999D01*
X293599Y285999D02*
X294299Y286699D01*
Y292999D02*
X313899Y312599D01*
X290799Y285999D02*
X293599D01*
X294299Y286699D02*
Y292999D01*
X313899Y312599D02*
X325299D01*
X292799Y206299D02*
Y216299D01*
X290799Y216899D02*
X2921D01*
X292799Y216299*
Y206299D02*
X308799Y190299D01*
X262399Y472399D02*
X290799D01*
X502599Y571199D02*
X599199D01*
X373399Y441999D02*
X502599Y571199D01*
X542299Y194299D02*
X586099Y238099D01*
X240199Y517099D02*
Y520499D01*
X249299Y494999D02*
Y508099D01*
Y494999D02*
X251499Y492799D01*
X240199Y517099D02*
X249299Y508099D01*
X461199Y223299D02*
Y346499D01*
X341499Y342699D02*
X3556Y356899D01*
X450799*
X461199Y346499*
X204899Y161299D02*
X253499D01*
X175299Y333999D02*
X175399Y334199D01*
X199399*
X269199Y289599D02*
X317699Y337999D01*
X325299*
X329999Y342699*
X251499Y289599D02*
X269199D01*
X329999Y342699D02*
X341499D01*
X411499Y298399D02*
X415099Y294899D01*
X377199Y298399D02*
X411499D01*
X415099Y294899D02*
X417799D01*
X377199Y247599D02*
X381899D01*
X390999Y238499*
X417799*
X359899Y264199D02*
X376399Y247599D01*
X327699Y264199D02*
X359899D01*
X376399Y247599D02*
X377199D01*
X372499Y298399D02*
X377199D01*
X327699Y289599D02*
X363599D01*
X372499Y298399*
X429299Y220999D02*
X4445Y236199D01*
Y318199*
X363199Y220999D02*
X429299D01*
X428699Y333999D02*
X4445Y318199D01*
X326199Y467399D02*
X349199D01*
X501199Y619299*
X326699Y441999D02*
X373399D01*
X327099Y417799D02*
X397499D01*
X499099Y519399*
X325799Y392399D02*
X420399D01*
X491499Y463499*
X363199Y194299D02*
X542299D01*
X328199Y212799D02*
X344699D01*
X363199Y194299*
X327699Y213399D02*
X328199Y212799D01*
X327699Y238799D02*
X345399D01*
X363199Y220999*
X308799Y190299D02*
X325299D01*
X327699Y187999*
X250299Y189099D02*
X251499Y187999D01*
X222299Y201899D02*
D01*
X235099Y189099*
X250299*
X154299Y269899D02*
X222299Y201899D01*
X154299Y269899D02*
Y333999D01*
X257299Y467399D02*
X262399Y472399D01*
X251499Y467399D02*
X257299D01*
X290799Y423099D02*
Y454699D01*
Y238199D02*
Y267999D01*
X617199Y519399D02*
X645199D01*
X617399Y571299D02*
X644999D01*
X617199Y571199D02*
X617399Y571299D01*
X644999D02*
X645199Y5715D01*
X644999Y619199D02*
X645099Y619099D01*
X617199Y619299D02*
X617399Y619199D01*
X644999*
X091399Y274799D02*
Y283799D01*
X381Y333999D02*
D01*
X407699*
X499099Y519399D02*
X599199D01*
X600999Y463499D02*
X601099D01*
X501199Y619299D02*
X599199D01*
X5715Y151199D02*
Y1524D01*
G54D13*
X086399Y146599D02*
Y133299D01*
X073099Y146599*
X069799*
X066399Y143299*
Y136599*
X069799Y133299*
Y153299D02*
X066399Y156599D01*
Y163299*
X069799Y166599*
X083099*
X086399Y163299*
Y156599*
X083099Y153299*
X069799*
X086399Y186599D02*
Y173299D01*
X073099Y186599*
X069799*
X066399Y183299*
Y176599*
X069799Y173299*
Y193299D02*
X066399Y196599D01*
Y2032*
X069799Y206599*
X073099*
X076399Y2032*
Y199899*
Y2032*
X079799Y206599*
X083099*
X086399Y2032*
Y196599*
X083099Y193299*
X061399Y457099D02*
X081399D01*
X071399*
Y470399*
X061399*
X081399*
X067999Y477099D02*
X077999D01*
X081399Y480399*
Y490399*
X067999*
X061399Y510399D02*
X081399D01*
Y500399*
X077999Y497099*
X071399*
X067999Y500399*
Y510399*
X081399Y517099D02*
Y527099D01*
X077999Y530399*
X074699Y527099*
Y520399*
X071399Y517099*
X067999Y520399*
Y530399*
X081399Y540399D02*
Y547099D01*
X077999Y550399*
X071399*
X067999Y547099*
Y540399*
X071399Y537099*
X077999*
X081399Y540399*
Y557099D02*
X067999D01*
Y567099*
X071399Y570399*
X081399*
X032199Y465999D02*
X052199D01*
Y479299*
X038799Y485999D02*
X048799D01*
X052199Y489299*
Y499299*
X038799*
Y519299D02*
Y509299D01*
X042199Y505999*
X048799*
X052199Y509299*
Y519299*
X038799Y529299D02*
Y535999D01*
X042199Y539299*
X052199*
Y529299*
X048799Y525999*
X045499Y529299*
Y539299*
X052199Y545999D02*
Y555999D01*
X048799Y559299*
X045499Y555999*
Y549299*
X042199Y545999*
X038799Y549299*
Y559299*
X037999Y130099D02*
X034699Y126799D01*
Y120099*
X037999Y116799*
X051399*
X054699Y120099*
Y126799*
X051399Y130099*
X044699*
Y123399*
X054699Y146799D02*
Y140099D01*
X051399Y136799*
X044699*
X041399Y140099*
Y146799*
X044699Y150099*
X047999*
Y136799*
X054699Y156699D02*
X041399D01*
Y166699*
X044699Y170099*
X054699*
Y176699D02*
Y183399D01*
Y180099*
X041399*
Y176699*
Y193399D02*
X051399D01*
X054699Y196699*
Y206699*
X041399*
X054699Y213399D02*
Y223399D01*
X051399Y226699*
X047999Y223399*
Y216699*
X044699Y213399*
X041399Y216699*
Y226699*
G54D14*
X490599Y283799D03*
Y408799D03*
X541399Y283799D03*
Y408799D03*
X040599Y283799D03*
Y408799D03*
X091399Y283799D03*
Y408799D03*
G54D15*
X570199Y149899D03*
X291599Y610099D03*
X6604Y415299D03*
X510799Y234499D03*
X306099Y074899D03*
X137199Y445799D03*
X518199Y370799D03*
X391399Y272599D03*
X586999Y237299D03*
X489899Y463499D03*
X240199Y520499D03*
X461199Y223299D03*
X205999Y162299D03*
G54D16*
X570199Y175299D03*
G54D17*
X610599Y132099D03*
X670599D03*
G54D18*
X643599Y183099D03*
G54D19*
X251499Y492799D03*
Y467399D03*
Y441999D03*
Y416599D03*
Y391199D03*
Y365799D03*
Y340399D03*
Y314999D03*
Y289599D03*
Y264199D03*
Y238799D03*
Y213399D03*
Y187999D03*
Y162599D03*
X327699D03*
Y187999D03*
Y213399D03*
Y238799D03*
Y264199D03*
Y289599D03*
Y314999D03*
Y340399D03*
Y365799D03*
Y391199D03*
Y416599D03*
Y441999D03*
Y467399D03*
G54D20*
X327699Y492799D03*
G54D21*
X353899Y045799D03*
X228899D03*
X353899Y096599D03*
X228899D03*
X601099Y463499D03*
X726099D03*
X601099Y412699D03*
X726099D03*
X228899Y610899D03*
X353899D03*
X228899Y560099D03*
X353899D03*
G54D22*
X377199Y298399D03*
Y247599D03*
X716399Y295899D03*
G54D23*
X642599Y295899D03*
G54D24*
X599399Y024099D03*
X573999D03*
X548599D03*
G54D25*
X709999Y039999D03*
X039999D03*
Y619999D03*
X709999D03*
M02*