%FSTAX24Y24*%
%MOMM*%
%SFA1B1*%

%IPPOS*%
%ADD10R,1.449997X0.899998*%
%ADD11R,0.899998X1.449997*%
%ADD12C,0.759998*%
%ADD14O,2.199996X3.999992*%
%ADD15C,1.999996*%
%ADD16R,1.999996X1.999996*%
%ADD17O,2.499995X3.999992*%
%ADD18O,3.999992X2.499995*%
%ADD19O,2.499995X1.999996*%
%ADD20R,2.499995X1.999996*%
%ADD21O,3.999992X2.199996*%
%ADD22C,2.499995*%
%ADD23R,2.499995X2.499995*%
%ADD24O,1.999996X2.499995*%
%ADD25C,3.499993*%
%ADD26R,3.299993X1.649997*%
%ADD27R,0.999998X1.649997*%
%ADD28R,2.649995X1.749997*%
%LNpcb-1*%
%LPD*%
G36*
X750599Y483999D02*
X694699D01*
Y471399*
X629899*
Y483999*
X574099*
Y471399*
X501499*
X501099Y472099*
X498499Y474699*
X4953Y476599*
X491799Y477499*
X488099*
X484499Y476599*
X481299Y474699*
X478699Y472099*
X476899Y468899*
X475899Y465399*
Y461699*
X476899Y458099*
X478699Y454899*
X481299Y452299*
X484499Y450499*
X488099Y449499*
X491799*
X4953Y450499*
X498499Y452299*
X501099Y454899*
X501499Y455699*
X574099*
Y443399*
X629899*
Y455599*
X694699*
Y443399*
X750599*
Y0*
X0*
Y6604*
X750599*
Y483999*
G37*
%LNpcb-2*%
%LPC*%
G36*
X256499Y581499D02*
X200599D01*
Y540899*
X220999*
Y529299*
X221299Y527299*
X221599Y526499*
X221999Y525399*
X223299Y523699*
X226199Y520799*
Y518599*
X227199Y515099*
X228999Y511899*
X229299Y511599*
X229899Y510499*
Y350499*
X273099*
Y510499*
X251799*
X251299Y511699*
X251499Y511899*
X253299Y515099*
X254199Y518599*
Y522299*
X253899Y523699*
X282399Y552299*
X325099*
Y539599*
X381*
Y580299*
X325099*
Y567999*
X256499*
Y581499*
G37*
G36*
X349199Y510499D02*
X306099D01*
Y325099*
X349199*
Y510499*
G37*
G36*
X378799Y314999D02*
X375599D01*
X372399Y314299*
X369399Y313099*
X366699Y311299*
X364399Y308999*
X362599Y306299*
X361299Y303299*
X360699Y300099*
Y296799*
X361299Y293599*
X362599Y290599*
X364399Y287899*
X366699Y285599*
X369399Y283799*
X372399Y282599*
X375599Y281899*
X378799*
X381999Y282599*
X384999Y283799*
X387699Y285599*
X389999Y287899*
X391799Y290599*
X393099Y293599*
X3937Y296799*
Y300099*
X393099Y303299*
X391799Y306299*
X389999Y308999*
X387699Y311299*
X384999Y313099*
X381999Y314299*
X378799Y314999*
G37*
G36*
X561299Y439399D02*
X5207D01*
Y387899*
X519599Y386799*
X519099Y386399*
X517499Y384799*
X516299*
X512799Y383899*
X509599Y381999*
X506999Y379399*
X505099Y376199*
X504199Y372699*
Y368999*
X505099Y365399*
X506999Y362199*
X509599Y359599*
X512799Y357799*
X516299Y356799*
X519999*
X522999Y357699*
X533499Y347199*
Y311099*
X5207*
Y255299*
X561299*
Y311099*
X549199*
Y383499*
X561299*
Y439399*
G37*
G36*
X378799Y264199D02*
X375599D01*
X372399Y263499*
X369399Y262299*
X366699Y260499*
X364399Y258199*
X362599Y255499*
X361299Y252499*
X360699Y249299*
Y245999*
X361299Y242799*
X362599Y239799*
X364399Y237099*
X366699Y234799*
X369399Y232999*
X372399Y231799*
X375599Y231099*
X378799*
X381999Y231799*
X384999Y232999*
X387699Y234799*
X389999Y237099*
X391799Y239799*
X393099Y242799*
X3937Y245999*
Y249299*
X393099Y252499*
X391799Y255499*
X389999Y258199*
X387699Y260499*
X384999Y262299*
X381999Y263499*
X378799Y264199*
G37*
G36*
X6604Y313699D02*
X626099D01*
Y290499*
X586799Y251299*
X585099*
X581599Y250299*
X578399Y248499*
X575799Y245899*
X573899Y242699*
X572999Y239099*
Y235399*
X573899Y231899*
X575799Y228699*
X578399Y226099*
X581599Y224199*
X585099Y223299*
X588799*
X592399Y224199*
X595599Y226099*
X598199Y228699*
X599999Y231899*
X600999Y235399*
Y239099*
X600099Y242299*
X637299Y2794*
X6604*
Y313699*
G37*
G36*
X349199Y3048D02*
X306099D01*
Y144799*
X349199*
Y3048*
G37*
G36*
X111899Y438099D02*
X071199D01*
Y382299*
X083499*
Y311099*
X071199*
Y255299*
X099799*
X185399Y169599*
Y144799*
X273099*
Y3302*
X231099*
Y182899*
X194399*
X111899Y265399*
Y311099*
X099199*
Y382299*
X111899*
Y438099*
G37*
G36*
X463099Y237299D02*
X459399D01*
X455799Y236299*
X452599Y234499*
X449999Y231899*
X448199Y228699*
X447199Y225099*
Y221499*
X448199Y217899*
X449999Y214699*
X452599Y212099*
X453399Y211699*
Y200499*
X452699*
Y177999*
X453399*
Y175499*
X440499*
Y150999*
X481499*
Y170199*
X482199Y170799*
X483799Y171099*
X485099Y171999*
X494499Y181399*
X554999*
Y137199*
X563599*
Y130399*
X558999*
Y113399*
X570999*
X5715*
X571999*
X581499*
Y130399*
X579399*
Y137199*
X586699*
Y189199*
X587999Y1905*
X569899*
X565599Y194799*
X563999Y195999*
X562899Y196499*
X562099Y196799*
X560099Y197099*
X498299*
X474999Y220399*
X475199Y221499*
Y225099*
X474299Y228699*
X472399Y231899*
X469799Y234499*
X466599Y236299*
X463099Y237299*
G37*
G36*
X307899Y0889D02*
X304199D01*
X300699Y087999*
X297499Y086099*
X294899Y083499*
X292999Y080299*
X2921Y076799*
Y073099*
X292999Y069499*
X293699Y068299*
X278999Y053699*
X257799*
Y066199*
X201899*
Y025499*
X257799*
Y037899*
X326399*
Y026799*
X382299*
Y067399*
X328499*
X321099Y074899*
X320099Y075599*
Y076799*
X319099Y080299*
X317299Y083499*
X314699Y086099*
X311499Y087999*
X307899Y0889*
G37*
G36*
X610599Y156199D02*
X607299Y155799D01*
X604399Y154899*
X593099*
Y107999*
X614799*
X634699Y087999*
Y079999*
X582899*
Y077499*
X582399*
Y051999*
X582899*
Y049499*
X591599*
Y043199*
X577499*
X577199Y043499*
X550399Y070299*
X548799Y071599*
X546899Y072399*
X544799Y072599*
X462699*
X453499Y081799*
X453999Y082999*
X469999*
Y107499*
X451999*
Y084999*
X450799Y084499*
X448699Y086699*
X447299Y087599*
X447099*
Y107499*
X429099*
Y082999*
X430299*
Y075999*
X429699*
Y053499*
X446699*
Y056899*
X541599*
X554099Y044399*
X553599Y043199*
X528299*
Y005099*
X619799*
Y043199*
X607299*
Y049499*
X659099*
Y051999*
X659899*
Y077499*
X659099*
Y079999*
X650499*
Y091299*
X650199Y093299*
X649399Y095199*
X648199Y096899*
X628699Y116399*
Y154899*
X616799*
X613799Y155799*
X610599Y156199*
G37*
%LNpcb-3*%
%LPD*%
G36*
X283299Y558899D02*
X2413Y516899D01*
X2286Y529599*
Y540899*
X256499*
Y560099*
X282799*
X283299Y558899*
G37*
G36*
X540999Y347099D02*
X539799Y346599D01*
X512399Y373999*
X521999Y383499*
X540999*
Y347099*
G37*
G36*
X498499Y191099D02*
X482199Y174899D01*
X481299Y175299*
X460999*
Y178199*
X461199Y178399*
Y179099*
X468599*
Y199399*
X460999*
Y214199*
X461199Y214299*
Y226699*
X462399Y227199*
X498499Y191099*
G37*
G36*
X326399Y056899D02*
Y046999D01*
X279799*
X279299Y048199*
X306099Y074899*
X326399Y056899*
G37*
G36*
X463599Y065899D02*
X463199Y064799D01*
X438099*
Y083799*
X445799*
X463599Y065899*
G37*
G54D10*
X570199Y121899D03*
Y103899D03*
G54D11*
X443199Y189199D03*
X461199D03*
X420099Y064799D03*
X438099D03*
G54D12*
X439799Y185799D02*
X442499D01*
X421599Y129499D02*
Y167599D01*
X442499Y185799D02*
X443199Y186499D01*
X421599Y167599D02*
X439799Y185799D01*
X443199Y186499D02*
Y189199D01*
X228899Y610899D02*
X353899D01*
X724799Y413999D02*
X726099Y412699D01*
X6604Y415299D02*
X661699Y413999D01*
X602399D02*
X659099D01*
X661699D02*
X724799D01*
X601099Y412699D02*
X602399Y413999D01*
X659099D02*
X6604Y415299D01*
X219899Y610899D02*
X228899D01*
X069899Y460899D02*
X219899Y610899D01*
X069899Y445799D02*
Y460899D01*
X490599Y254699D02*
Y283799D01*
Y254699D02*
X510799Y234499D01*
X567499Y103899D02*
X570199D01*
X483899Y095199D02*
X5588D01*
X567499Y103899*
X421599Y129499D02*
X468599D01*
X388699Y096599D02*
X421599Y129499D01*
X468599D02*
X483899Y1143D01*
Y095199D02*
Y1143D01*
X388699Y096599D02*
X391099D01*
X353899D02*
X388699D01*
X391099D02*
X420099Y067499D01*
Y064799D02*
Y067499D01*
X228899Y096599D02*
X353899D01*
X338999Y045799D02*
X344899D01*
X338999D02*
Y047699D01*
X335699Y051099D02*
X338999Y047699D01*
X314999Y069299D02*
X315499D01*
X309399Y074899D02*
X314999Y069299D01*
X228899Y045799D02*
X338999D01*
X306099Y074899D02*
X309399D01*
X333699Y051099D02*
X335699D01*
X315499Y069299D02*
X333699Y051099D01*
X344899Y045799D02*
X353899D01*
X040599Y275299D02*
X219299Y096599D01*
X228899*
X040599Y275299D02*
Y283799D01*
Y408799*
X069899Y445799D02*
X137199D01*
X040599Y408799D02*
Y416499D01*
X069899Y445799*
X610599Y123399D02*
X642599Y091299D01*
Y071099D02*
Y091299D01*
X599399Y064599D02*
X599599Y064799D01*
X599399Y024099D02*
Y064599D01*
X490599Y417799D02*
X515999Y443199D01*
X561599D02*
X592099Y412699D01*
X515999Y443199D02*
X561599D01*
X490599Y408799D02*
Y417799D01*
X592099Y412699D02*
X601099D01*
X716399Y295899D02*
Y405999D01*
X643899Y209499D02*
Y223399D01*
X716399Y295899*
X643699Y209399D02*
X643899Y209499D01*
X657499Y145199D02*
X660299D01*
X670599Y132199D02*
Y134899D01*
X660299Y145199D02*
X670599Y134899D01*
X648999Y153699D02*
X657499Y145199D01*
X643599Y159099D02*
X648999Y153699D01*
X643599Y159099D02*
Y183099D01*
X490599Y283799D02*
Y408799D01*
X542299Y398299D02*
Y400299D01*
X541399Y283799D02*
Y398299D01*
Y408799*
X518199Y374199D02*
X542299Y398299D01*
X518199Y370799D02*
Y374199D01*
X391399Y272599D02*
X393799Y274899D01*
X483899*
X610599Y123399D02*
Y132099D01*
X643699Y183199D02*
Y209399D01*
X643599Y183099D02*
X643699Y183199D01*
X5715Y121199D02*
Y151199D01*
X642599Y064799D02*
X647099D01*
X586999Y237299D02*
Y240199D01*
X642599Y295899*
X228899Y529299D02*
Y560099D01*
Y529299D02*
X238999Y519199D01*
X601099Y463499D02*
X726099D01*
X491499D02*
X600999D01*
X327699Y365799D02*
X329499Y367599D01*
X091399Y274799D02*
X204899Y161299D01*
X091399Y283799D02*
Y408799D01*
X228899Y560099D02*
X353899D01*
X375299Y295499D02*
X375599Y295199D01*
X374199Y295499D02*
X375299D01*
X376399Y247599D02*
X377199D01*
X373899Y295099D02*
X374199Y295499D01*
X377199Y298399*
X571699Y025199D02*
X573999Y022899D01*
X544799Y064799D02*
X571699Y037899D01*
X438099Y064799D02*
X544799D01*
X571699Y025199D02*
Y037899D01*
X460999Y161999D02*
X461199Y162199D01*
Y189199D02*
Y223299D01*
Y189199D02*
X560099D01*
X5715Y1778*
X461199Y162199D02*
Y189199D01*
X438099Y064799D02*
Y093999D01*
G54D14*
X490599Y283799D03*
Y408799D03*
X541399Y283799D03*
Y408799D03*
X040599Y283799D03*
Y408799D03*
X091399Y283799D03*
Y408799D03*
G54D15*
X570199Y149899D03*
X291599Y610099D03*
X6604Y415299D03*
X510799Y234499D03*
X306099Y074899D03*
X137199Y445799D03*
X518199Y370799D03*
X391399Y272599D03*
X586999Y237299D03*
X489899Y463499D03*
X240199Y520499D03*
X461199Y223299D03*
X205999Y162299D03*
G54D16*
X570199Y175299D03*
G54D17*
X610599Y132099D03*
X670599D03*
G54D18*
X643599Y183099D03*
G54D19*
X251499Y492799D03*
Y467399D03*
Y441999D03*
Y416599D03*
Y391199D03*
Y365799D03*
Y340399D03*
Y314999D03*
Y289599D03*
Y264199D03*
Y238799D03*
Y213399D03*
Y187999D03*
Y162599D03*
X327699D03*
Y187999D03*
Y213399D03*
Y238799D03*
Y264199D03*
Y289599D03*
Y314999D03*
Y340399D03*
Y365799D03*
Y391199D03*
Y416599D03*
Y441999D03*
Y467399D03*
G54D20*
X327699Y492799D03*
G54D21*
X353899Y045799D03*
X228899D03*
X353899Y096599D03*
X228899D03*
X601099Y463499D03*
X726099D03*
X601099Y412699D03*
X726099D03*
X228899Y610899D03*
X353899D03*
X228899Y560099D03*
X353899D03*
G54D22*
X377199Y298399D03*
Y247599D03*
X716399Y295899D03*
G54D23*
X642599Y295899D03*
G54D24*
X599399Y024099D03*
X573999D03*
X548599D03*
G54D25*
X709999Y039999D03*
X039999D03*
Y619999D03*
X709999D03*
G54D26*
X460999Y163299D03*
G54D27*
X438099Y095199D03*
X460999D03*
X483899D03*
G54D28*
X642599Y064799D03*
X599599D03*
M02*