M48
;Layer_Color=9474304
;FILE_FORMAT=4:2
METRIC,LZ
;TYPE=PLATED
T1F00S00C1.00
T2F00S00C5.00
%
T01
X001003Y001493
Y001747
Y002001
Y002255
Y002509
Y002763
Y003017
Y003271
Y003525
Y003779
X003543
Y003525
Y003271
Y003017
Y002763
Y002509
Y002255
Y002001
Y001747
Y001493
X004267Y001118
Y002068
X004039Y002515
Y002769
Y003023
Y003277
Y003531
Y003785
X005563
Y003531
Y003277
Y003023
Y002769
Y002515
X005817Y002068
Y001118
X005728Y00033
X005228
X006794Y001334
Y001588
Y001842
X006663Y00288
Y00338
Y00399
Y00449
X005563Y004293
Y004039
X004039
Y004293
X003543Y004287
Y004033
Y004541
Y004795
Y005049
X001003
Y004795
Y004541
Y004287
Y004033
T02
X0005Y0005
X0065
Y0055
X0005
M30
