%FSTAX24Y24*%
%MOMM*%
%SFA1B1*%

%IPPOS*%
%ADD10C,2.499995*%
%ADD11O,2.499995X1.999996*%
%ADD12R,2.499995X1.999996*%
%ADD13R,2.499995X1.999996*%
%ADD14O,2.499995X1.999996*%
%ADD15R,1.999996X1.999996*%
%ADD16C,1.999996*%
%ADD17C,4.999990*%
%LNpcb-1*%
%LPD*%
G54D10*
X666299Y287999D03*
Y337999D03*
Y398999D03*
Y448999D03*
X522799Y032999D03*
X572799D03*
G54D11*
X100299Y504899D03*
Y479499D03*
Y454099D03*
Y428699D03*
Y403299D03*
Y377899D03*
Y352499D03*
Y327099D03*
Y301699D03*
Y276299D03*
Y250899D03*
Y225499D03*
Y200099D03*
Y174699D03*
X354299Y149299D03*
Y174699D03*
Y200099D03*
Y225499D03*
Y250899D03*
Y276299D03*
Y301699D03*
Y327099D03*
Y352499D03*
Y377899D03*
Y403299D03*
Y428699D03*
Y454099D03*
Y479499D03*
Y504899D03*
X679399Y133399D03*
Y158799D03*
Y184199D03*
G54D12*
X100299Y149299D03*
G54D13*
X556299Y251499D03*
G54D14*
X403899Y429299D03*
Y403899D03*
Y378499D03*
Y353099D03*
Y327699D03*
Y302299D03*
Y276899D03*
Y251499D03*
X556299Y276899D03*
Y302299D03*
Y327699D03*
Y353099D03*
Y378499D03*
Y403899D03*
Y429299D03*
G54D15*
X426699Y206799D03*
X581699D03*
G54D16*
X426699Y111799D03*
X581699D03*
G54D17*
X049999Y549999D03*
X649999Y049999D03*
Y549999D03*
X049999Y049999D03*
M02*