%FSTAX24Y24*%
%MOMM*%
%SFA1B1*%

%IPPOS*%
%ADD10C,2.499995*%
%ADD11O,2.499995X1.999996*%
%ADD12R,2.499995X1.999996*%
%ADD13R,2.499995X1.999996*%
%ADD14O,2.499995X1.999996*%
%ADD15R,1.999996X1.999996*%
%ADD16C,1.999996*%
%ADD17C,4.999990*%
%ADD18C,0.759998*%
%ADD19C,0.399999*%
%LNpcb-1*%
%LPD*%
G36*
X699799Y0D02*
X0D01*
Y599399*
X699799*
Y0*
G37*
%LNpcb-2*%
%LPC*%
G36*
X311099Y556299D02*
X143499D01*
Y506699*
X311099*
Y556299*
G37*
G36*
X620999Y551999D02*
X375699D01*
Y521999*
X391899*
Y493999*
X603299*
Y521999*
X620999*
Y551999*
G37*
G36*
X697199Y473699D02*
X620999D01*
Y414899*
X617899Y411699*
X574299*
Y418599*
X537499*
Y407199*
Y313699*
X552599*
X553799Y313499*
X5588*
X559899Y313699*
X574299*
Y319799*
X620999*
Y256499*
X695999*
X697199Y257799*
Y473699*
G37*
G36*
X116799Y518999D02*
X082599D01*
Y185399*
X116799*
Y199299*
X116999Y200099*
X116799Y200999*
Y224699*
X116999Y225499*
X116799Y226399*
Y250099*
X116999Y250899*
X116799Y251799*
Y275499*
X116999Y276299*
X116799Y277199*
Y300899*
X116999Y301699*
X116799Y302599*
Y326299*
X116999Y327099*
X116799Y327999*
Y351699*
X116999Y352499*
X116799Y353399*
Y377099*
X116999Y377899*
X116799Y378799*
Y402499*
X116999Y403299*
X116799Y404199*
Y427899*
X116999Y428699*
X116799Y429599*
Y453299*
X116999Y454099*
X116799Y454999*
Y478699*
X116999Y479499*
X116799Y480399*
Y504099*
X116999Y504899*
X116799Y505799*
Y518999*
G37*
G36*
X372099Y519399D02*
X337799D01*
Y505799*
X337699Y504899*
X337799Y504099*
Y480399*
X337699Y479499*
X337799Y478699*
Y454999*
X337699Y454099*
X337799Y453299*
Y429599*
X337699Y428699*
X337799Y427899*
Y404199*
X337699Y403299*
X337799Y402499*
Y378799*
X337699Y377899*
X337799Y377099*
Y353399*
X337699Y352499*
X337799Y351699*
Y327999*
X337699Y327099*
X337799Y326299*
Y302599*
X337699Y301699*
X337799Y300899*
Y277199*
X337699Y276299*
X337799Y275499*
Y251799*
X337699Y250899*
X337799Y250099*
Y226399*
X337699Y225499*
X337799Y224699*
Y200999*
X337699Y200099*
X337799Y199299*
Y185399*
X372099*
Y163799*
X337799*
Y150199*
X337699Y149299*
X337799Y148499*
Y115599*
X336699Y115299*
X147999*
X117599Y145699*
Y163999*
X083299*
Y133499*
X107499*
X139199Y101799*
X140799Y100599*
X142699Y099799*
X144699Y099499*
X382999*
X384999Y099799*
X386899Y100599*
X388599Y101799*
X432199Y145499*
X433199Y146699*
X485299Y198899*
X509099*
X511099Y199199*
X511899Y199499*
X512999Y199899*
X514599Y201199*
X550899Y237499*
X572799*
X576599*
Y290799*
X559899*
X5588Y290999*
X553799*
X552599Y290799*
X537199*
Y284199*
X461699*
X459699Y283899*
X457799Y283099*
X456199Y281899*
X424099Y249799*
X422899Y250299*
Y4191*
X386099*
Y411199*
X372099*
Y519399*
G37*
G36*
X595699Y220799D02*
X567699D01*
Y192799*
X584499*
X624099Y153199*
X625699Y151899*
X627599Y151099*
X629699Y150899*
X6604*
Y129899*
X578899Y048299*
X577599Y048899*
X574399Y049499*
X571099*
X567999Y048899*
X564999Y047599*
X562299Y045799*
X559999Y043499*
X558099Y040799*
X556899Y037799*
X556299Y034599*
Y031399*
X556899Y028199*
X558099Y025199*
X559999Y022499*
X562299Y020199*
X564999Y018399*
X567999Y017199*
X571099Y016499*
X574399*
X577599Y017199*
X580599Y018399*
X583299Y020199*
X585599Y022499*
X587399Y025199*
X588599Y028199*
X589299Y031399*
Y034599*
X588999Y036199*
X665799Y112999*
X6985*
Y204499*
X6604*
Y166599*
X632899*
X595699Y203899*
Y220799*
G37*
%LNpcb-3*%
%LPD*%
G36*
X486599Y205899D02*
X427899Y147199D01*
X426699Y147699*
Y206699*
Y206799*
X486099Y207099*
X486599Y205899*
G37*
G54D10*
X666299Y287999D03*
Y337999D03*
Y398999D03*
Y448999D03*
X522799Y032999D03*
X572799D03*
G54D11*
X100299Y504899D03*
Y479499D03*
Y454099D03*
Y428699D03*
Y403299D03*
Y377899D03*
Y352499D03*
Y327099D03*
Y301699D03*
Y276299D03*
Y250899D03*
Y225499D03*
Y200099D03*
Y174699D03*
X354299Y149299D03*
Y174699D03*
Y200099D03*
Y225499D03*
Y250899D03*
Y276299D03*
Y301699D03*
Y327099D03*
Y352499D03*
Y377899D03*
Y403299D03*
Y428699D03*
Y454099D03*
Y479499D03*
Y504899D03*
X679399Y133399D03*
Y158799D03*
Y184199D03*
G54D12*
X100299Y149299D03*
G54D13*
X556299Y251499D03*
G54D14*
X403899Y429299D03*
Y403899D03*
Y378499D03*
Y353099D03*
Y327699D03*
Y302299D03*
Y276899D03*
Y251499D03*
X556299Y276899D03*
Y302299D03*
Y327699D03*
Y353099D03*
Y378499D03*
Y403899D03*
Y429299D03*
G54D15*
X426699Y206799D03*
X581699D03*
G54D16*
X426699Y111799D03*
X581699D03*
G54D17*
X049999Y549999D03*
X649999Y049999D03*
Y549999D03*
X049999Y049999D03*
G54D18*
X354299Y149299D02*
X375399D01*
X397499Y171499D02*
Y212099D01*
X375399Y149299D02*
X397499Y171499D01*
Y212099D02*
X461699Y276299D01*
X556299*
X553799Y251499D02*
X556299D01*
X426699Y206799D02*
X509099D01*
X553799Y251499*
X426699Y151099D02*
Y206799D01*
X382999Y107399D02*
X426699Y151099D01*
X392099Y077199D02*
X426699Y111799D01*
X103899Y077199D02*
X392099D01*
X428999Y109399D02*
X446399D01*
X426699Y111799D02*
X428999Y109399D01*
X446399D02*
X522799Y032999D01*
X580099Y090299D02*
Y110199D01*
X522799Y032999D02*
X580099Y090299D01*
Y110199D02*
X581699Y111799D01*
X629699Y158799D02*
X679399D01*
X581699Y206799D02*
X629699Y158799D01*
X574699Y032999D02*
X674999Y133399D01*
X679399*
X572799Y032999D02*
X574699D01*
X556299Y327699D02*
X626599D01*
X666299Y287999*
X647499Y353099D02*
X662599Y337999D01*
X556299Y353099D02*
X647499D01*
X662599Y337999D02*
X666299D01*
X645799Y378499D02*
X666299Y398999D01*
X556299Y378499D02*
X645799D01*
X556299Y403899D02*
X621199D01*
X666299Y448999*
X556299Y428699D02*
X556799Y429199D01*
X554199Y4318D02*
X556799Y429199D01*
X493999Y428699D02*
X556299D01*
X529599Y301699D02*
X556299D01*
X223499Y174699D02*
X354299D01*
X493999Y337299D02*
X529599Y301699D01*
X354299Y352499D02*
X403999D01*
X354299Y377899D02*
X403999D01*
X354299Y403299D02*
X403999D01*
X354299Y301699D02*
X403999D01*
X354299Y276299D02*
X403999D01*
X100299Y174699D02*
X223499D01*
X354299Y250899D02*
X403999D01*
X417799Y428699D02*
X493999D01*
Y337299D02*
Y428699D01*
X354299Y327099D02*
X403999D01*
X100299Y149299D02*
X102799D01*
X060999Y120099D02*
X103899Y077199D01*
X077499Y174699D02*
X100299D01*
X102799Y149299D02*
X144699Y107399D01*
X382999*
X060999Y158199D02*
X077499Y174699D01*
X060999Y120099D02*
Y158199D01*
G54D19*
X596699Y517599D02*
Y500599D01*
X585399*
X579699Y511899D02*
Y503399D01*
X576899Y500599*
X568399*
Y511899*
X551399D02*
X559899D01*
X562699Y509099*
Y503399*
X559899Y500599*
X551399*
X542899Y511899D02*
X537199D01*
X534399Y509099*
Y500599*
X542899*
X545699Y503399*
X542899Y506199*
X534399*
X528699Y500599D02*
X520199D01*
X517399Y503399*
X520199Y506199*
X525899*
X528699Y509099*
X525899Y511899*
X517399*
X494699Y517599D02*
Y500599D01*
Y509099*
X483399*
Y517599*
Y500599*
X477699Y511899D02*
Y503399D01*
X474899Y500599*
X466399*
Y511899*
X449399Y517599D02*
Y500599D01*
X457899*
X460799Y503399*
Y509099*
X457899Y511899*
X449399*
X443799Y500599D02*
X435299D01*
X432399Y503399*
X435299Y506199*
X440899*
X443799Y509099*
X440899Y511899*
X432399*
X423899Y500599D02*
X418299D01*
X415399Y503399*
Y509099*
X418299Y511899*
X423899*
X426799Y509099*
Y503399*
X423899Y500599*
X409799D02*
Y511899D01*
X401299*
X398399Y509099*
Y500599*
X603199Y545499D02*
X614499D01*
Y528499*
X603199*
X614499Y536999D02*
X608799D01*
X586199Y542699D02*
X588999Y545499D01*
X594699*
X597499Y542699*
Y539799*
X594699Y536999*
X588999*
X586199Y534199*
Y531299*
X588999Y528499*
X594699*
X597499Y531299*
X580499Y528499D02*
Y545499D01*
X571999*
X569199Y542699*
Y536999*
X571999Y534199*
X580499*
X563499Y542699D02*
X560699Y545499D01*
X554999*
X552199Y542699*
Y539799*
X554999Y536999*
X557799*
X554999*
X552199Y534199*
Y531299*
X554999Y528499*
X560699*
X563499Y531299*
X535199Y528499D02*
X546499D01*
X535199Y539799*
Y542699*
X537999Y545499*
X543699*
X546499Y542699*
X501199D02*
X503999Y545499D01*
X509699*
X512499Y542699*
Y531299*
X509699Y528499*
X503999*
X501199Y531299*
X492699Y539799D02*
X486999D01*
X484199Y536999*
Y528499*
X492699*
X495499Y531299*
X492699Y534199*
X484199*
X478499Y539799D02*
Y528499D01*
Y534199*
X475699Y536999*
X472899Y539799*
X469999*
X433199Y528499D02*
X4445D01*
X433199Y539799*
Y542699*
X435999Y545499*
X441699*
X4445Y542699*
X427599D02*
X424699Y545499D01*
X4191*
X416199Y542699*
Y531299*
X4191Y528499*
X424699*
X427599Y531299*
Y542699*
X399199Y528499D02*
X410599D01*
X399199Y539799*
Y542699*
X402099Y545499*
X407699*
X410599Y542699*
X393599D02*
X390699Y545499D01*
X385099*
X382199Y542699*
Y539799*
X385099Y536999*
X387899*
X385099*
X382199Y534199*
Y531299*
X385099Y528499*
X390699*
X393599Y531299*
M02*